# xmcd
# 
# Track frame offsets:
#     150
#     17987
#     33532
#     50545
#     68550
#     83172
#     100310
#     113902
#     123502
#     138275
#     150070
#     165677
#     181400
#     210110
# 
# Disc length: 2960
# 
# Revision: 1
# Processed by: cddbd v1.5.2PL0 Copyright (c) Steve Scherf et al.
# Submitted via: fre:ac v1.0.31
# 
DISCID=ae0b8e0e
DTITLE=Roots of Rhythm - A Better Place
DYEAR=2000
DGENRE=R&B
TTITLE0=Ball of Confusion
TTITLE1=War
TTITLE2=Give More Power People to the People
TTITLE3=The World is a Ghetto
TTITLE4=Mercy Mercy Me (the Ecology)
TTITLE5=Ghetto Child
TTITLE6=Patches
TTITLE7=Poverty
TTITLE8=Down and Out in New York City
TTITLE9=We're Gonna Make It
TTITLE10=Be Thankful for What You Got
TTITLE11=Touch a Hand, Make a Friend
TTITLE12=People Make the World Go Round
TTITLE13=People Get Ready
EXTD=
EXTT0=
EXTT1=
EXTT2=
EXTT3=
EXTT4=
EXTT5=
EXTT6=
EXTT7=
EXTT8=
EXTT9=
EXTT10=
EXTT11=
EXTT12=
EXTT13=
PLAYORDER=
